<svg version="1.1" viewBox="0.0 0.0 123.85301837270342 123.92913385826772" fill="none" stroke="none" stroke-linecap="square" stroke-miterlimit="10" xmlns:xlink="http://www.w3.org/1999/xlink" xmlns="http://www.w3.org/2000/svg"><clipPath id="p.0"><path d="m0 0l123.85302 0l0 123.92913l-123.85302 0l0 -123.92913z" clip-rule="nonzero"/></clipPath><g clip-path="url(#p.0)"><path fill="#000000" fill-opacity="0.0" d="m0 0l123.85302 0l0 123.92913l-123.85302 0z" fill-rule="evenodd"/><path fill="#000000" fill-opacity="0.0" d="m0.002669029 0.0016816272l124.0 0l0 124.0l-124.0 0z" fill-rule="evenodd"/><path fill="#ffffff" d="m5.6823564 20.771053l13.96875 0q13.968752 0 18.906252 1.078125q4.953125 1.078125 8.0625 5.515625q3.125 4.421875 3.125 14.125q0 8.859375 -2.203125 11.90625q-2.203125 3.046875 -8.671875 3.65625q5.859375 1.453125 7.875 3.890625q2.015625 2.4375 2.5 4.484371q0.5 2.03125 0.5 11.21875l0 20.015625l-18.328127 0l0 -25.21875q0 -6.09375 -0.96875 -7.546871q-0.953125 -1.453125 -5.03125 -1.453125l0 34.218746l-19.734375 0l0 -75.890625zm19.734375 12.984375l0 16.875q3.328125 0 4.65625 -0.90625q1.34375 -0.921875 1.34375 -5.9375l0 -4.171875q0 -3.609375 -1.296875 -4.734375q-1.28125 -1.125 -4.703125 -1.125zm92.859375 -12.984375l0 75.890625l-17.25 0l0 -51.23437l-6.890625 51.23437l-12.234375 0l-7.265625 -50.062496l0 50.062496l-17.25 0l0 -75.890625l25.546875 0q1.125 6.84375 2.390625 16.125l2.71875 19.3125l4.5 -35.4375l25.734375 0z" fill-rule="nonzero"/></g></svg>