<svg xmlns="http://www.w3.org/2000/svg" xmlns:xlink="http://www.w3.org/1999/xlink" version="1.1" x="0px" y="0px" viewBox="0 0 100 100" enable-background="new 0 0 100 100" xml:space="preserve"><path fill="#000000" d="M35.007,33.973c0.867,0,1.696,0.202,2.431,0.538c0.714,0.331,1.525,0.521,2.352,0.521  c0.838,0,1.649-0.19,2.363-0.521c0.734-0.334,1.564-0.538,2.432-0.538c0.859,0,1.686,0.202,2.42,0.538  c0.724,0.331,1.523,0.521,2.361,0.521c0.83,0,1.641-0.19,2.354-0.521c0.736-0.334,1.565-0.538,2.432-0.538  c0.857,0,1.688,0.202,2.432,0.538c0.713,0.331,1.516,0.521,2.354,0.521s1.638-0.19,2.354-0.521c0.731-0.334,1.562-0.538,2.431-0.538  c0.867,0,1.696,0.202,2.428,0.538c0.717,0.331,1.516,0.521,2.354,0.521v-3.573c-0.838,0-1.637-0.195-2.354-0.513  c-0.731-0.346-1.561-0.548-2.428-0.548c-0.869,0-1.699,0.203-2.431,0.548c-0.717,0.317-1.517,0.513-2.354,0.513  s-1.641-0.195-2.354-0.513c-0.745-0.346-1.574-0.548-2.432-0.548c-0.866,0-1.695,0.203-2.432,0.548  c-0.713,0.317-1.523,0.513-2.354,0.513c-0.838,0-1.637-0.195-2.361-0.513c-0.734-0.346-1.561-0.548-2.42-0.548  c-0.867,0-1.697,0.203-2.432,0.548c-0.714,0.317-1.525,0.513-2.363,0.513c-0.827,0-1.638-0.195-2.352-0.513  c-0.734-0.346-1.563-0.548-2.431-0.548c-0.86,0-1.687,0.203-2.422,0.548c-0.726,0.317-1.524,0.513-2.364,0.513v3.573  c0.84,0,1.639-0.19,2.364-0.521C33.32,34.177,34.146,33.973,35.007,33.973z"></path><path fill="#000000" d="M58.402,20.312c0,2.542,1.856,4.614,4.557,4.614c2.513,0,4.553-2.072,4.553-4.614  c0-2.544-2.04-4.606-4.553-4.606C60.439,15.705,58.402,17.768,58.402,20.312z"></path><path fill="#000000" d="M37.438,27.874c0.714,0.326,1.525,0.521,2.353,0.521c0.837,0,1.649-0.194,2.364-0.521  c0.734-0.338,1.563-0.551,2.43-0.551c0.86,0,1.688,0.213,2.422,0.551c0.723,0.326,1.521,0.521,2.359,0.521  c0.83,0,1.642-0.194,2.355-0.521c0.734-0.338,1.564-0.551,2.432-0.551c0.855,0,1.686,0.213,2.43,0.551  c0.715,0.326,1.516,0.521,2.354,0.521c0.61,0,1.198-0.105,1.753-0.28l-7.598-13.862l8.836-1.63c1.297-0.25,2.238-1.28,2.238-2.6  c0-1.455-1.171-2.621-2.602-2.621c-0.104,0-0.198,0-0.296,0.009L47.621,9.923c-0.957,0.222-2.227,1.641-1.504,3.382  c0.039,0.096,0.076,0.186,0.116,0.28l3.562,6.503l-13.359,7.431C36.788,27.604,37.121,27.729,37.438,27.874z"></path><path fill="#000000" d="M39.138,65.088c-0.675-0.002-1.325,0.084-1.947,0.255l-0.626-1.811l-0.323-1.518  c-0.001-0.001,0-0.053-0.001-0.054l-0.205-1.044l2.608,0.005c0.287,0,0.521-0.144,0.521-0.431c0.002-0.287-0.231-0.433-0.52-0.433  l-1.966-0.004c0.587-0.641,0.601-1.635,0.007-2.292l-5.962-6.603c-0.083-0.092-0.175-0.173-0.272-0.242  c-0.078-0.071-0.162-0.14-0.252-0.202c-1.152-0.813-2.748-0.537-3.562,0.616l-4.562,6.475c-0.619,0.877-0.607,2.008-0.061,2.857  c0.076,0.132,0.17,0.256,0.283,0.367l0.819,0.804l0.064,0.223l-1.987,3.681c-0.92-0.417-1.939-0.645-3.014-0.646  c-4.049-0.008-7.35,3.285-7.357,7.334c-0.008,4.051,3.281,7.354,7.331,7.361c3.689,0.007,6.758-2.722,7.28-6.271l0.639,0.05  c0.197,0.424,0.563,0.768,1.045,0.915c0.16,0.049,0.322,0.073,0.482,0.075c0.736,0.009,1.42-0.464,1.648-1.204l0.846-2.75  l5.752-5.937l0.36,1.034c-2.599,1.127-4.424,3.715-4.431,6.725c-0.006,4.05,3.281,7.351,7.332,7.358s7.352-3.281,7.359-7.331  C46.476,68.402,43.187,65.095,39.138,65.088z M29.998,55.443l4.157,4.604c0.204,0.226,0.452,0.382,0.721,0.473  c0.001,0.013,0.003,0.024,0.006,0.038l0.204,0.789l-7.61-0.014l-0.964-0.945L29.998,55.443z M18.158,78.575  c-3.381-0.007-6.127-2.763-6.12-6.142c0.007-3.382,2.761-6.127,6.143-6.12c0.866,0.001,1.689,0.185,2.436,0.511l-2.905,5.373  c-0.083,0.154-0.083,0.341,0.002,0.496c0.084,0.155,0.242,0.257,0.418,0.269l6.09,0.464C23.749,76.346,21.208,78.581,18.158,78.575z   M19.009,71.986l2.522-4.666c1.652,1.089,2.748,2.953,2.768,5.067L19.009,71.986z M25.99,72.352  c-0.016,0.055-0.03,0.109-0.041,0.165l-0.498-0.036c0-0.008,0-0.016,0-0.022c0.005-2.605-1.331-4.898-3.38-6.206l1.511-2.75  l2.488,8.591L25.99,72.352z M26.65,70.206l-2.006-6.875l3.165,3.104L26.65,70.206z M30.783,68.366l0.59-1.922  c0.188-0.608,0.02-1.271-0.436-1.718L28.8,62.631l6.511,0.012l0.184,0.894L30.783,68.366z M39.111,78.569  c-3.381-0.006-6.125-2.762-6.119-6.143c0.006-2.48,1.491-4.617,3.616-5.578l2.024,5.806c0.074,0.215,0.275,0.349,0.49,0.349  c0.057,0,0.115-0.008,0.172-0.029c0.271-0.094,0.414-0.391,0.32-0.661l-2.025-5.81c0.494-0.128,1.012-0.196,1.545-0.194  c3.381,0.006,6.125,2.762,6.119,6.142S42.492,78.575,39.111,78.569z"></path><circle fill="#000000" cx="31.944" cy="47.245" r="2.727"></circle><path fill="#000000" d="M96.07,30.538c-2.518-5.954-6.123-11.301-10.715-15.894c-4.592-4.591-9.939-8.196-15.893-10.715  C63.299,1.322,56.75,0,50,0S36.703,1.322,30.537,3.93c-5.953,2.519-11.301,6.124-15.893,10.715  c-4.592,4.593-8.196,9.939-10.715,15.894C1.322,36.703,0,43.251,0,50.001s1.322,13.298,3.93,19.463  c2.519,5.954,6.123,11.301,10.715,15.893c4.592,4.591,9.939,8.196,15.893,10.715C36.703,98.678,43.25,100,50,100  s13.299-1.322,19.463-3.929c5.953-2.519,11.301-6.124,15.893-10.715c4.592-4.592,8.197-9.938,10.715-15.893  c2.607-6.165,3.93-12.713,3.93-19.463S98.678,36.703,96.07,30.538z M50,1.823c17.528,0,32.896,9.413,41.326,23.445L49.672,49.317  L8.51,25.553C16.903,11.365,32.355,1.823,50,1.823z M1.822,50.001c0-8.27,2.096-16.059,5.783-22.866l41.484,23.951v47.068  C22.944,97.665,1.822,76.26,1.822,50.001z M50.912,98.154V50.706l41.323-23.858c3.784,6.875,5.942,14.766,5.942,23.153  C98.178,76.26,77.057,97.665,50.912,98.154z"></path><circle fill="#000000" cx="78.772" cy="48.679" r="2.697"></circle><path fill="#000000" d="M85.142,60.01h-2.963c-0.261,0-0.409-0.026-0.48-0.046c-0.098-0.324-0.051-1.238-0.017-1.918  c0.014-0.255,0.027-0.521,0.037-0.8c0.119-3.013-2.483-4.634-4.041-5.115c-0.002-0.001-0.006-0.001-0.008-0.002  s-0.004-0.002-0.006-0.003c-0.039-0.011-0.35-0.104-0.824-0.241c-0.051-0.015-0.102-0.03-0.151-0.043  c-1.089-0.313-2.89-0.816-4.379-1.162c-1.571-0.365-2.671-0.591-3.579-0.61c-0.477-0.01-1.002,0.158-1.504,0.44  c-0.796,0.447-1.354,1.195-1.611,2.163c-0.49,1.838-0.648,2.812-0.655,2.852c-0.129,0.808,0.421,1.565,1.228,1.696  c0.08,0.013,0.158,0.019,0.237,0.019c0.714,0,1.343-0.518,1.46-1.245c0.002-0.008,0.146-0.887,0.593-2.558  c0.044-0.163,0.16-0.596,0.995-0.377l0.006-0.021c0.026,0.01,0.053,0.02,0.082,0.029c0.092,0.031,0.191,0.059,0.297,0.083  l1.782,0.414c0.433,0.101,0.897,0.217,1.364,0.337l-4.297,6.947c-0.193,0.313-0.318,0.647-0.385,0.987  c-0.094,0.203-0.152,0.428-0.158,0.667l-0.207,7.583l-0.032,0.079l0.022,0.095c-0.035,0.003-0.076,0.005-0.123,0.005h-7.223  c-0.936,0-1.693,0.759-1.693,1.693c0,0.936,0.758,1.693,1.693,1.693h7.223c1.463,0,2.301-0.613,2.746-1.129  c0.783-0.904,0.807-1.983,0.773-2.445l0.128-4.663l5.285,3.761c0.253,0.185,0.613,0.628,0.613,0.799v7.461  c0,0.935,0.759,1.693,1.693,1.693s1.693-0.759,1.693-1.693v-7.461c0-2.021-1.805-3.39-2.023-3.549l-4.519-3.215l4.289-6.934  c0.008-0.013,0.014-0.026,0.021-0.039c0.151,0.256,0.246,0.551,0.233,0.892c-0.011,0.266-0.024,0.521-0.036,0.765  c-0.085,1.665-0.158,3.103,0.82,4.132c0.606,0.638,1.469,0.946,2.636,0.946h2.963c0.817,0,1.481-0.663,1.481-1.481  C86.623,60.674,85.959,60.01,85.142,60.01z"></path></svg>